<?xml version="1.0" standalone="no"?>
<!DOCTYPE svg PUBLIC "-//W3C//DTD SVG 20010904//EN"
 "http://www.w3.org/TR/2001/REC-SVG-20010904/DTD/svg10.dtd">
<svg version="1.0" xmlns="http://www.w3.org/2000/svg"
 width="700.000000pt" height="700.000000pt" viewBox="0 0 700.000000 700.000000"
 preserveAspectRatio="xMidYMid meet">
<metadata>
Created by potrace 1.14, written by Peter Selinger 2001-2017
</metadata>
<g transform="translate(0.000000,700.000000) scale(0.100000,-0.100000)"
fill="#000000" stroke="none">
<path d="M1958 5934 c-258 -36 -485 -141 -638 -295 -192 -193 -338 -530 -385
-889 -3 -25 -8 -52 -10 -60 -2 -8 -7 -44 -10 -80 -4 -36 -8 -78 -10 -95 -2
-16 -7 -66 -11 -110 -3 -44 -8 -87 -9 -96 -2 -9 -6 -65 -10 -125 -4 -60 -8
-129 -11 -154 -2 -25 -6 -150 -10 -279 l-7 -235 -33 -47 c-69 -95 -135 -279
-150 -415 -13 -118 -8 -385 11 -504 2 -14 7 -54 10 -90 4 -36 8 -72 10 -80 2
-8 6 -44 9 -80 4 -36 9 -81 11 -100 2 -19 7 -64 10 -100 4 -36 8 -79 10 -95 2
-17 6 -75 10 -130 4 -55 8 -122 11 -150 2 -27 6 -137 10 -242 5 -159 4 -193
-7 -194 -8 0 -126 -1 -264 -2 l-249 -2 -1 -48 c-1 -27 3 -51 7 -53 11 -7 6485
-7 6496 0 5 3 8 27 7 53 l-1 48 -251 1 c-138 0 -257 3 -265 6 -10 4 -13 20
-12 54 25 627 24 1625 -1 1794 -2 14 -7 45 -10 70 -27 210 -85 297 -252 380
-238 117 -501 244 -579 278 -116 50 -128 70 -119 199 5 69 3 100 -9 126 -17
42 -74 86 -151 117 -64 26 -70 40 -17 40 47 0 99 27 134 71 36 44 128 296 128
350 0 46 -22 94 -49 108 -17 10 -16 13 19 50 72 75 90 209 51 363 -94 365
-362 599 -736 643 -62 7 -234 8 -295 0 -110 -12 -213 -49 -307 -107 -34 -21
-103 -57 -155 -79 -121 -53 -168 -89 -226 -174 -124 -182 -145 -435 -53 -631
l29 -63 -26 -10 c-61 -23 -81 -60 -79 -138 2 -68 15 -91 135 -241 78 -99 134
-137 187 -128 18 3 28 -1 36 -17 9 -15 9 -22 1 -25 -26 -8 -138 -86 -154 -105
-26 -33 -38 -93 -41 -195 l-3 -94 -40 -20 c-21 -11 -47 -25 -58 -30 -27 -14
-33 2 -35 86 -1 39 -3 94 -5 121 -2 28 -7 97 -11 155 -9 150 -22 297 -30 340
-1 8 -6 40 -10 70 -11 92 -54 268 -95 390 -148 448 -391 717 -758 840 -90 30
-103 33 -237 55 -99 16 -330 16 -447 -1z m464 -111 c35 -7 76 -15 93 -19 54
-10 175 -54 243 -88 283 -143 473 -421 586 -856 33 -130 51 -223 61 -320 3
-30 8 -66 10 -80 2 -14 7 -68 10 -120 4 -52 8 -117 10 -145 2 -27 7 -111 10
-185 4 -74 9 -145 10 -158 3 -26 -10 -35 -105 -67 l-67 -23 -109 28 c-60 15
-116 30 -124 34 -8 3 -30 7 -48 10 -19 2 -35 6 -37 8 -2 2 34 81 80 175 160
329 205 473 208 663 3 185 -15 278 -86 430 -127 273 -376 458 -699 521 -166
32 -464 34 -628 4 -233 -43 -442 -223 -520 -450 -25 -73 -86 -313 -95 -375 -4
-25 -10 -65 -15 -89 -12 -64 -5 -219 13 -277 19 -65 34 -93 122 -235 113 -179
146 -253 160 -354 3 -27 11 -55 17 -62 8 -10 7 -13 -3 -14 -8 0 -23 -2 -34 -4
-11 -1 -45 -6 -75 -9 -206 -23 -300 -50 -403 -114 -22 -13 -41 -21 -44 -18
-12 12 4 377 31 691 16 190 46 420 67 515 5 25 11 54 13 65 10 52 57 215 76
260 98 238 215 395 374 499 122 80 300 146 446 163 25 3 47 7 48 8 11 10 350
0 404 -12z m2267 -9 c184 -33 322 -116 443 -264 107 -132 176 -373 141 -493
-19 -65 -56 -89 -148 -95 -63 -4 -107 1 -226 23 -113 21 -377 120 -484 182
-171 98 -263 183 -375 350 -30 45 -56 80 -57 79 -1 -1 -5 -44 -9 -96 -13 -185
-43 -300 -120 -451 -73 -142 -104 -157 -151 -73 -69 121 -68 330 2 478 45 94
93 138 202 186 54 23 127 60 161 82 35 22 83 48 105 57 130 56 330 69 516 35z
m-2259 -288 c321 -63 523 -214 645 -479 47 -104 68 -196 71 -322 3 -145 -31
-298 -101 -451 -14 -30 -25 -56 -25 -58 0 -3 -39 -85 -86 -183 -47 -98 -98
-209 -114 -248 -15 -38 -31 -79 -35 -90 -14 -36 -36 129 -38 290 -1 83 2 195
7 250 12 143 13 174 4 230 -4 28 -10 67 -14 89 -9 61 -54 177 -88 226 -76 111
-160 153 -404 201 -90 18 -180 42 -212 57 -65 30 -149 112 -205 200 -22 34
-43 62 -46 62 -3 0 -26 -37 -52 -83 -113 -201 -170 -409 -148 -533 6 -33 14
-72 16 -88 3 -15 20 -72 38 -125 30 -91 32 -103 31 -241 -1 -125 -5 -157 -27
-234 -28 -96 -41 -120 -45 -80 -5 62 -66 185 -204 410 -31 50 -63 115 -72 145
-20 65 -20 197 1 308 25 133 82 349 109 408 24 55 86 146 129 189 81 81 197
135 341 158 112 18 415 13 524 -8z m1776 -354 c29 -23 54 -42 57 -42 4 0 23
-12 44 -26 130 -89 479 -218 648 -240 28 -3 54 -9 59 -11 17 -11 -12 -315 -37
-388 -2 -5 -9 -30 -16 -54 -23 -81 -94 -211 -145 -267 -49 -53 -111 -87 -307
-167 -22 -9 -41 -3 -138 42 -62 29 -135 58 -163 64 -45 11 -55 18 -93 72 -136
193 -231 456 -239 665 -2 47 2 61 27 95 51 71 112 216 147 351 l10 42 48 -47
c26 -26 70 -66 98 -89z m-2225 -227 c49 -25 162 -57 244 -70 141 -21 267 -69
317 -122 39 -40 82 -141 81 -185 -1 -21 -9 -67 -19 -104 -54 -218 -184 -363
-362 -404 -100 -23 -223 9 -295 78 -81 77 -175 265 -221 442 -47 184 -42 250
36 442 l31 77 69 -64 c37 -36 91 -76 119 -90z m3263 -163 c8 -13 -79 -257
-104 -292 -12 -16 -28 -30 -36 -30 -17 0 -16 -5 -4 58 8 45 16 108 26 202 1
14 2 28 3 32 3 24 103 50 115 30z m-1535 -33 c52 -30 71 -61 92 -152 10 -45
21 -93 25 -105 6 -22 5 -23 -12 -12 -18 11 -129 150 -166 208 -10 15 -18 39
-18 55 0 34 26 36 79 6z m-1065 -540 c-3 -23 -7 -67 -8 -99 0 -33 -4 -56 -7
-52 -7 8 -29 94 -29 114 0 14 37 78 45 78 2 0 2 -18 -1 -41z m1342 -54 c21
-36 53 -83 71 -105 18 -21 33 -48 33 -59 0 -19 -6 -21 -70 -21 l-69 0 3 53 c6
78 -21 114 -103 139 -8 2 6 16 35 35 26 18 51 30 54 28 4 -2 24 -34 46 -70z
m1085 51 l54 -25 -73 0 c-40 -1 -71 -4 -68 -9 6 -10 18 -133 20 -197 l1 -50
-59 0 -59 0 -3 53 c-1 30 -5 56 -8 59 -3 3 10 23 29 44 19 21 49 63 66 94 17
30 34 55 39 55 4 0 32 -11 61 -24z m-3134 -201 c93 -62 214 -80 343 -49 62 14
173 68 204 99 18 18 19 16 39 -55 16 -55 55 -123 96 -169 11 -13 21 -33 22
-45 0 -12 2 -30 4 -41 2 -11 7 -39 10 -63 11 -76 35 -154 55 -182 12 -17 35
-32 57 -37 35 -8 38 -11 36 -44 -1 -18 -11 -77 -22 -129 -12 -52 -24 -124 -27
-160 -9 -88 -10 -90 -80 -151 -136 -120 -181 -151 -265 -180 -52 -19 -86 -23
-179 -23 -141 -1 -159 7 -274 113 -91 84 -167 127 -266 151 l-65 16 -3 311 -2
311 54 30 c101 58 146 142 163 305 6 56 6 57 27 42 12 -8 44 -31 73 -50z
m3213 14 c0 -109 47 -186 143 -233 30 -14 57 -26 60 -26 4 0 105 -48 224 -106
120 -58 260 -126 312 -151 96 -46 164 -102 182 -151 15 -39 36 -147 44 -222 3
-36 8 -76 10 -90 16 -113 22 -701 11 -1021 -2 -64 -7 -253 -11 -420 -4 -167
-9 -306 -11 -308 -2 -2 -81 -4 -175 -4 l-173 0 -3 744 c-1 409 -4 773 -6 809
l-3 65 -39 -2 c-22 0 -47 -1 -56 -2 -11 -1 -14 -10 -12 -33 6 -52 12 -1544 7
-1564 -5 -18 -25 -19 -502 -18 -273 1 -500 2 -503 3 -6 1 -8 101 -13 466 -2
120 2 158 26 269 34 153 113 429 210 726 74 230 148 487 168 585 6 33 21 89
32 125 22 73 31 191 32 442 1 167 1 168 24 168 20 0 22 -5 22 -51z m-1314 33
c7 -4 14 -75 18 -192 12 -301 13 -311 41 -405 14 -49 35 -124 45 -165 10 -41
49 -172 85 -290 77 -250 91 -296 180 -605 37 -126 73 -248 80 -270 38 -116 47
-214 41 -486 -2 -145 -5 -284 -5 -309 l-1 -45 -357 3 c-197 2 -423 5 -503 8
l-145 3 -6 48 c-5 43 -2 1244 4 1468 l2 90 -52 2 -53 2 -1 -272 c-2 -853 -7
-1326 -13 -1335 -7 -12 -329 -12 -341 0 -24 24 -25 1604 -1 1733 2 11 7 51 11
90 4 38 8 72 10 75 2 3 6 26 10 50 10 76 48 179 77 214 49 60 182 129 419 219
190 71 288 113 400 172 17 8 19 21 19 101 0 101 6 116 36 96z m937 -189 c-4
-91 -13 -123 -33 -123 -5 0 -47 23 -93 51 -102 60 -105 77 -19 103 31 9 75 27
97 40 22 13 43 25 46 25 4 1 5 -43 2 -96z m-515 37 c29 -11 70 -23 90 -26 73
-11 68 -25 -29 -83 -109 -66 -116 -63 -121 52 -2 42 -1 77 2 77 3 0 29 -9 58
-20z m-177 -50 c3 -20 7 -71 8 -107 2 -35 8 -43 68 -86 l67 -49 35 17 c38 17
171 95 206 120 18 13 27 9 102 -39 45 -29 104 -63 132 -75 l49 -24 39 29 c21
16 42 33 48 37 5 4 18 13 29 20 13 10 18 26 19 65 l0 52 55 0 55 0 -6 -117
c-3 -65 -13 -152 -22 -193 -15 -69 -173 -620 -300 -1045 -29 -99 -72 -247 -96
-330 l-42 -150 2 -290 c2 -159 4 -314 6 -342 2 -43 -1 -53 -14 -54 -9 0 -33
-2 -54 -3 l-38 -2 2 350 2 351 -47 185 c-49 192 -116 418 -186 625 -23 66 -49
149 -60 185 -10 36 -41 143 -70 239 -71 245 -97 381 -99 524 l-2 117 56 0 c30
0 56 -4 56 -10z m-1054 -146 c22 -31 13 -48 -45 -86 l-57 -37 -3 62 c-2 50 0
64 15 74 22 17 74 9 90 -13z m-1510 -336 l0 -293 -49 -1 c-30 -1 -48 2 -49 10
-6 64 10 559 19 568 7 7 63 16 73 11 3 -1 6 -134 6 -295z m-191 253 c-2 -3 -7
-56 -11 -116 -4 -61 -8 -123 -10 -140 -3 -26 -18 -277 -18 -313 0 -6 -21 -24
-45 -38 -90 -53 -125 -111 -128 -210 -3 -79 9 -133 67 -310 39 -120 44 -138
55 -204 3 -19 8 -38 10 -41 2 -4 6 -24 10 -45 3 -22 9 -55 14 -74 9 -36 16
-117 26 -305 8 -134 9 -524 1 -531 -6 -7 -406 -9 -412 -2 -3 3 -7 74 -10 159
-5 192 -21 464 -30 529 -2 14 -6 59 -10 100 -8 99 -40 392 -50 460 -19 129
-25 395 -12 505 10 89 43 200 85 285 46 93 150 201 236 244 82 41 207 77 223
64 7 -6 11 -13 9 -17z m342 -685 c93 -23 152 -58 233 -135 86 -81 146 -117
220 -132 111 -22 259 -9 361 32 57 22 154 86 206 135 19 18 39 31 43 28 5 -3
6 -26 4 -52 -6 -53 -6 -868 0 -1067 1 -71 4 -202 6 -290 l2 -160 -591 -3 -591
-2 -19 62 c-23 73 -78 312 -87 378 -4 24 -8 47 -10 51 -2 3 -9 32 -14 65 -6
32 -12 70 -15 84 -3 14 -10 52 -16 85 -18 104 -21 117 -46 245 -14 69 -44 181
-66 250 -61 187 -74 248 -66 303 7 55 18 70 69 103 80 50 229 58 377 20z
m-235 -1588 c14 -53 14 -57 -4 -61 -17 -5 -19 1 -19 61 0 36 2 63 4 61 2 -2
11 -29 19 -61z"/>
<path d="M4407 3522 c-25 -16 -62 -75 -68 -112 -8 -40 13 -89 44 -109 84 -52
189 -24 233 61 32 61 11 115 -56 152 -56 30 -112 33 -153 8z m103 -102 c13 -9
12 -12 -4 -25 -22 -17 -56 -20 -56 -6 0 37 29 52 60 31z"/>
<path d="M4458 3160 c-82 -14 -123 -74 -112 -162 5 -36 15 -57 37 -80 28 -27
35 -30 82 -26 32 3 64 13 84 27 38 27 71 88 71 132 0 30 -34 99 -48 99 -4 0
-23 4 -42 8 -19 5 -51 5 -72 2z m52 -126 c0 -16 -37 -37 -50 -29 -17 10 -11
43 8 47 24 6 42 -2 42 -18z"/>
<path d="M4435 2802 c-81 -26 -114 -127 -71 -211 59 -114 256 -33 256 105 0
45 -17 78 -50 97 -28 17 -96 21 -135 9z m73 -118 c-2 -9 -13 -23 -25 -31 -20
-14 -23 -14 -29 1 -10 26 4 46 31 46 19 0 26 -5 23 -16z"/>
</g>
</svg>
